<svg id="icon-tezos" xmlns="http://www.w3.org/2000/svg" width="32" height="32" viewBox="0 0 32 32">
  <rect id="Rectangle_2168" data-name="Rectangle 2168" width="32" height="32" fill="none"/>
  <path id="Path_4873" data-name="Path 4873" d="M15.18,32q-3.425,0-5-1.65a5.094,5.094,0,0,1-1.57-3.556,2.358,2.358,0,0,1,.275-1.175,2.033,2.033,0,0,1,.75-.75,2.616,2.616,0,0,1,2.335,0,2,2,0,0,1,.746.75A2.31,2.31,0,0,1,13,26.794a2.244,2.244,0,0,1-.4,1.375,1.864,1.864,0,0,1-.95.7,2.6,2.6,0,0,0,1.5.935,7.432,7.432,0,0,0,2.045.295,4.558,4.558,0,0,0,2.575-.77,4.5,4.5,0,0,0,1.68-2.275,9.883,9.883,0,0,0,.55-3.4,9.342,9.342,0,0,0-.6-3.54,4.37,4.37,0,0,0-1.735-2.2,4.614,4.614,0,0,0-2.5-.715A4.756,4.756,0,0,0,13,17.925l-1.605.8v-.8L18.61,8.246h-10V18.29a3.594,3.594,0,0,0,.55,2.055,1.9,1.9,0,0,0,1.68.8,2.809,2.809,0,0,0,1.66-.585,5.994,5.994,0,0,0,1.39-1.43.5.5,0,0,1,.181-.24.37.37,0,0,1,.241-.09.835.835,0,0,1,.47.2,1,1,0,0,1,.255.68,3.975,3.975,0,0,1-.09.5,4.841,4.841,0,0,1-1.715,2.129,4.254,4.254,0,0,1-2.406.731q-3.248,0-4.5-1.28a4.794,4.794,0,0,1-1.24-3.5V8.246H0V6.38H5.11V2.125L3.94.954V0H7.335L8.61.66V6.38l13.21-.04,1.315,1.32-8.1,8.139a5.444,5.444,0,0,1,1.53-.37,6.631,6.631,0,0,1,2.961.845,6.081,6.081,0,0,1,2.55,2.276,8.031,8.031,0,0,1,1.15,2.745,11.563,11.563,0,0,1,.275,2.35A9.831,9.831,0,0,1,22.5,28a6.386,6.386,0,0,1-3,3A9.708,9.708,0,0,1,15.18,32Z" transform="translate(4)" fill="#2c7df7"/>
</svg>
