<svg id="icon-qnt" xmlns="http://www.w3.org/2000/svg" width="32" height="32" viewBox="0 0 32 32">
  <rect id="Rectangle_2156" data-name="Rectangle 2156" width="32" height="32" transform="translate(0 0)" fill="none"/>
  <g id="quant-qnt-logo" transform="translate(1.041 -0.019)">
    <path id="Path_4809" data-name="Path 4809" d="M102.3,1.917l8.128,9.524,5.456-3.209S109.3-.572,107.546.051C105.9.679,102.3,1.917,102.3,1.917Z" transform="translate(-95.637 0)"/>
    <path id="Path_4810" data-name="Path 4810" d="M312.8,52.976a19.577,19.577,0,0,0,1.854-5.076s6.177,2.482,3.806,8.7Z" transform="translate(-292.35 -44.745)"/>
    <path id="Path_4811" data-name="Path 4811" d="M399.2,180.567l.517,6.524,2.365-.308s.616-.21.517-1.343c-.1-1.244-.308-3.832-.308-3.832s.1-.622-1.336-.825C399.2,180.462,399.2,180.567,399.2,180.567Z" transform="translate(-373.091 -168.707)"/>
    <path id="Path_4812" data-name="Path 4812" d="M339.436,280.4l-4.736,3.832,2.161,4.244s.517,1.657,2.057-.21c1.441-1.867,2.057-2.175,1.952-3.314S340.464,281.12,339.436,280.4Z" transform="translate(-312.815 -262.016)"/>
    <path id="Path_4813" data-name="Path 4813" d="M159.163,297.4l-6.484-2.9L147.019,306s-.413.825,1.028.93c1.441.21,3.806.727,5.043-.517C154.329,305.275,159.163,297.4,159.163,297.4Z" transform="translate(-137.376 -275.193)"/>
    <path id="Path_4814" data-name="Path 4814" d="M15.3,183.663,14.686,176l-14,.937s-.825.1-.72,1.657c.1,2.07.308,4.349.308,4.349s-.1.93,1.749,1.035S15.1,184.076,15.3,183.663Z" transform="translate(0 -164.454)"/>
  </g>
</svg>
