<svg id="icon-iota" xmlns="http://www.w3.org/2000/svg" width="32" height="32" viewBox="0 0 32 32">
  <rect id="Rectangle_2158" data-name="Rectangle 2158" width="32" height="32" fill="none"/>
  <g id="Layer_2" data-name="Layer 2" transform="translate(0 1)">
    <g id="Layer_1" data-name="Layer 1">
      <path id="Path_4808" data-name="Path 4808" d="M23.272,3.594a1.786,1.786,0,0,0,1.771-1.8A1.771,1.771,0,1,0,21.5,1.8,1.782,1.782,0,0,0,23.272,3.594Zm.522,4.67a1.511,1.511,0,0,0,1.5-1.522h0a1.5,1.5,0,1,0-1.5,1.522Zm4.116.6a1.519,1.519,0,1,0-1.5-1.518A1.508,1.508,0,0,0,27.911,8.859Zm-.494,4a1.3,1.3,0,1,0-1.279-1.3A1.288,1.288,0,0,0,27.417,12.855Zm3.3,1.3a1.306,1.306,0,1,0-1.288-1.306h0A1.3,1.3,0,0,0,30.712,14.151Zm-7.437-1.836a1.319,1.319,0,0,0,1.311-1.326h0v0a1.311,1.311,0,1,0-1.311,1.329Zm-1.188,3.179a1.113,1.113,0,0,0,0-2.225h0a1.113,1.113,0,0,0,0,2.225Zm4.122.562a1.1,1.1,0,0,0,1.09-1.1h0v0a1.09,1.09,0,1,0-1.1,1.107h.01Zm3.286,1.29a1.1,1.1,0,1,0-.005,0Zm-1.623,2.412a.941.941,0,1,0-.928-.941A.936.936,0,0,0,27.872,19.758Zm-3.3-1.27a.964.964,0,1,0-.95-.964A.959.959,0,0,0,24.571,18.488ZM20.453,17.9a.955.955,0,1,0,0-1.91h0a.955.955,0,1,0,0,1.91Zm2.289,2.266a.828.828,0,0,0,.007-1.657h-.007a.828.828,0,0,0-.009,1.657Zm3.3,1.292a.837.837,0,1,0-.837-.837A.834.834,0,0,0,26.043,21.457Zm-1.859.969a.662.662,0,1,0-.653-.662A.658.658,0,0,0,24.184,22.426Zm-1.762.52a.594.594,0,0,0,.59-.6v0a.59.59,0,1,0-1.18,0v0a.589.589,0,0,0,.579.6ZM20.88,21.223a.712.712,0,1,0-.7-.712.708.708,0,0,0,.7.712ZM18.616,19.59a.828.828,0,1,0-.819-.828.824.824,0,0,0,.819.828Zm6.712,10.378a1.789,1.789,0,1,0-1.762-1.789,1.776,1.776,0,0,0,1.762,1.789ZM20.854,27.7a1.49,1.49,0,1,0-1.468-1.49A1.48,1.48,0,0,0,20.854,27.7ZM18.3,30.981a1.5,1.5,0,1,0-1.481-1.5,1.49,1.49,0,0,0,1.481,1.5Zm-.769-6.036a1.293,1.293,0,0,0,1.284-1.3h0a1.293,1.293,0,0,0-1.284-1.3h0a1.293,1.293,0,0,0-1.284,1.3h0a1.3,1.3,0,0,0,1.284,1.3Zm-2.55,3.321a1.275,1.275,0,1,0-.008,0Zm-2.749,2.253a1.293,1.293,0,1,0-1.275-1.293,1.284,1.284,0,0,0,1.275,1.293ZM9.941,27.586a1.1,1.1,0,1,0-1.1-1.1,1.1,1.1,0,0,0,1.1,1.1ZM12.7,25.322a1.1,1.1,0,1,0-1.106-1.106A1.1,1.1,0,0,0,12.7,25.322ZM15.264,22a1.1,1.1,0,0,0,1.089-1.1h0v0a1.09,1.09,0,1,0-2.179,0h0v0A1.1,1.1,0,0,0,15.264,22Zm-3.93.457a.959.959,0,1,0-.946-.959A.952.952,0,0,0,11.334,22.46Zm-2.74,2.255a.942.942,0,0,0,.937-.947h0v0a.941.941,0,0,0-.932-.95H8.594a.942.942,0,0,0-.937.947h0v0A.944.944,0,0,0,8.594,24.714Zm-.63-2.642a.819.819,0,1,0-.81-.819A.817.817,0,0,0,7.964,22.072Zm-.023-2.319a.7.7,0,0,0,.694-.707h0a.694.694,0,1,0-.694.707Zm.382-1.928a.6.6,0,1,0-.59-.6A.594.594,0,0,0,8.323,17.825Zm2.362-.323a.712.712,0,1,0-.7-.712.708.708,0,0,0,.7.712Zm2.593-1.01a.828.828,0,0,0,.007-1.657h-.007a.828.828,0,0,0,0,1.657Zm.617,2.63a.93.93,0,1,0-.932-.931.93.93,0,0,0,.932.931Zm-3.176.7a.825.825,0,1,0-.81-.828v0a.813.813,0,0,0,.8.824h.009ZM1.757,18.6a1.78,1.78,0,0,0,0-3.559,1.78,1.78,0,0,0,0,3.559Zm3.987-3.178a1.528,1.528,0,1,0-1.5-1.53v0a1.515,1.515,0,0,0,1.5,1.527ZM4.188,11.5a1.519,1.519,0,1,0-1.5-1.521v0A1.5,1.5,0,0,0,4.18,11.5ZM8.031,9.648a1.3,1.3,0,1,0-1.284-1.3,1.294,1.294,0,0,0,1.284,1.3ZM9.6,13.557a1.306,1.306,0,1,0-1.288-1.306A1.3,1.3,0,0,0,9.6,13.557Zm3.5-.812a1.1,1.1,0,0,0,1.095-1.112h0A1.095,1.095,0,1,0,12,11.6v.034h0a1.1,1.1,0,0,0,1.087,1.113Zm3.021.01a.955.955,0,1,0-.955-.955A.951.951,0,0,0,16.121,12.755Zm2.5.575a.807.807,0,1,0-.8-.807A.8.8,0,0,0,18.617,13.33Zm.325-2.942a.7.7,0,1,0-.694-.7A.7.7,0,0,0,18.943,10.388Zm-1.92-.963a.8.8,0,1,0-.8-.8.8.8,0,0,0,.8.8Zm-2.467-.584a.95.95,0,1,0-.937-.95.945.945,0,0,0,.937.95Zm-3.016,0a1.113,1.113,0,1,0-1.1-1.113,1.105,1.105,0,0,0,1.1,1.113ZM7.477,6.063A1.261,1.261,0,1,0,6.234,4.8,1.25,1.25,0,0,0,7.477,6.063Zm3.5-.764a1.113,1.113,0,1,0-1.1-1.113A1.105,1.105,0,0,0,10.973,5.3Zm3.02.014a.959.959,0,1,0-.946-.961h0v0a.955.955,0,0,0,.946.959Zm2.479.571a.807.807,0,1,0-.807-.807A.8.8,0,0,0,16.472,5.884Zm1.9.988a.721.721,0,1,0-.712-.721A.717.717,0,0,0,18.376,6.872Zm1.4,1.134a.589.589,0,0,0,.585-.593h0a.589.589,0,0,0-.584-.594h0a.589.589,0,0,0-.585.593h0a.585.585,0,0,0,.576.594h.009Z"/>
    </g>
  </g>
</svg>
