<svg id="icon-ada" xmlns="http://www.w3.org/2000/svg" width="32" height="32" viewBox="0 0 32 32">
  <rect id="Rectangle_2164" data-name="Rectangle 2164" width="32" height="32" fill="none"/>
  <g id="Layer_1-2" transform="translate(0 2)">
    <path id="Path_4821" data-name="Path 4821" d="M102.762,150.139a2.155,2.155,0,0,0,2.031,2.27h.128a2.155,2.155,0,1,0-2.159-2.27Z" transform="translate(-93.989 -135.461)" fill="#0033ad"/>
    <path id="Path_4822" data-name="Path 4822" d="M.726,165.484a.7.7,0,1,0,.657.734.691.691,0,0,0-.657-.734Z" transform="translate(0.008 -151.36)" fill="#0033ad"/>
    <path id="Path_4823" data-name="Path 4823" d="M90.351,11.258a.7.7,0,0,0-.631-1.246.7.7,0,0,0,.631,1.246Z" transform="translate(-81.715 -9.09)" fill="#0033ad"/>
    <path id="Path_4824" data-name="Path 4824" d="M110.125,48.3a1.074,1.074,0,1,0-1.442-.478A1.077,1.077,0,0,0,110.125,48.3Z" transform="translate(-99.305 -42.32)" fill="#0033ad"/>
    <path id="Path_4825" data-name="Path 4825" d="M36.279,83.348a.888.888,0,1,0-.256-1.229h0A.883.883,0,0,0,36.279,83.348Z" transform="translate(-32.814 -74.746)" fill="#0033ad"/>
    <path id="Path_4826" data-name="Path 4826" d="M43.715,160.981a1.077,1.077,0,1,0,1.015,1.135h0A1.077,1.077,0,0,0,43.715,160.981Z" transform="translate(-38.945 -147.241)" fill="#0033ad"/>
    <path id="Path_4827" data-name="Path 4827" d="M36.77,244.678a.889.889,0,1,0,1.195.393h0a.893.893,0,0,0-1.195-.393Z" transform="translate(-33.186 -223.711)" fill="#0033ad"/>
    <path id="Path_4828" data-name="Path 4828" d="M84.837,109.987a1.264,1.264,0,1,0-.367-1.749,1.256,1.256,0,0,0,.367,1.749Z" transform="translate(-77.072 -98.474)" fill="#0033ad"/>
    <path id="Path_4829" data-name="Path 4829" d="M241.258,47.915a1.078,1.078,0,1,0-.307-1.493h0a1.066,1.066,0,0,0,.307,1.493Z" transform="translate(-220.224 -42.018)" fill="#0033ad"/>
    <path id="Path_4830" data-name="Path 4830" d="M268.94,10.837a.7.7,0,1,0-.2-.973.719.719,0,0,0,.2.973Z" transform="translate(-245.704 -8.736)" fill="#0033ad"/>
    <path id="Path_4831" data-name="Path 4831" d="M224.031,147.861a2.154,2.154,0,0,0-.239,4.3h.119a2.152,2.152,0,0,0,.119-4.3Z" transform="translate(-202.835 -135.24)" fill="#0033ad"/>
    <path id="Path_4832" data-name="Path 4832" d="M132.609,99.511a2.156,2.156,0,1,0,.956-2.9,2.159,2.159,0,0,0-.956,2.9Z" transform="translate(-121.081 -88.152)" fill="#0033ad"/>
    <path id="Path_4833" data-name="Path 4833" d="M319.121,82.837a.887.887,0,1,0-1.2-.393.9.9,0,0,0,1.2.393Z" transform="translate(-290.706 -74.235)" fill="#0033ad"/>
    <path id="Path_4834" data-name="Path 4834" d="M261.511,107.388a1.265,1.265,0,1,0,1.7.563A1.265,1.265,0,0,0,261.511,107.388Z" transform="translate(-238.557 -98.103)" fill="#0033ad"/>
    <path id="Path_4835" data-name="Path 4835" d="M177.523,1.761a.9.9,0,0,0,.939-.836.889.889,0,0,0-1.775-.111.9.9,0,0,0,.836.947Z" transform="translate(-161.608 0.015)" fill="#0033ad"/>
    <path id="Path_4836" data-name="Path 4836" d="M173.578,59a1.265,1.265,0,1,0-1.195-1.331A1.256,1.256,0,0,0,173.578,59Z" transform="translate(-157.672 -51.652)" fill="#0033ad"/>
    <path id="Path_4837" data-name="Path 4837" d="M86.346,212.01a1.265,1.265,0,1,0-1.7-.563A1.265,1.265,0,0,0,86.346,212.01Z" transform="translate(-77.301 -191.725)" fill="#0033ad"/>
    <path id="Path_4838" data-name="Path 4838" d="M192.234,97.373a2.154,2.154,0,1,0,1.8-.973A2.148,2.148,0,0,0,192.234,97.373Z" transform="translate(-175.509 -88.173)" fill="#0033ad"/>
    <path id="Path_4839" data-name="Path 4839" d="M196.158,200.665a2.154,2.154,0,1,0-.956,2.893h0a2.144,2.144,0,0,0,.964-2.876C196.166,200.674,196.166,200.674,196.158,200.665Z" transform="translate(-175.686 -182.454)" fill="#0033ad"/>
    <path id="Path_4840" data-name="Path 4840" d="M263.02,209.37a1.264,1.264,0,1,0,.367,1.749,1.256,1.256,0,0,0-.367-1.749Z" transform="translate(-238.785 -191.313)" fill="#0033ad"/>
    <path id="Path_4841" data-name="Path 4841" d="M309.331,161.515a1.077,1.077,0,1,0-1.135,1.015h0A1.083,1.083,0,0,0,309.331,161.515Z" transform="translate(-280.967 -146.692)" fill="#0033ad"/>
    <path id="Path_4842" data-name="Path 4842" d="M359.426,164.684a.7.7,0,1,0,.657.734A.7.7,0,0,0,359.426,164.684Z" transform="translate(-328.084 -150.629)" fill="#0033ad"/>
    <path id="Path_4843" data-name="Path 4843" d="M319.692,244.164a.888.888,0,1,0,.256,1.229.883.883,0,0,0-.256-1.229Z" transform="translate(-291.157 -223.197)" fill="#0033ad"/>
    <path id="Path_4844" data-name="Path 4844" d="M91.032,320.668a.7.7,0,1,0,.2.964h0A.685.685,0,0,0,91.032,320.668Z" transform="translate(-82.276 -293.199)" fill="#0033ad"/>
    <path id="Path_4845" data-name="Path 4845" d="M269.72,320.275a.7.7,0,1,0,.631,1.246.7.7,0,0,0-.631-1.246Z" transform="translate(-246.356 -292.874)" fill="#0033ad"/>
    <path id="Path_4846" data-name="Path 4846" d="M136.5,202.921a2.157,2.157,0,1,0-2.987.623,2.164,2.164,0,0,0,2.987-.623Z" transform="translate(-121.228 -182.551)" fill="#0033ad"/>
    <path id="Path_4847" data-name="Path 4847" d="M110.608,275.515a1.078,1.078,0,1,0,.307,1.493h0A1.068,1.068,0,0,0,110.608,275.515Z" transform="translate(-99.642 -251.843)" fill="#0033ad"/>
    <path id="Path_4848" data-name="Path 4848" d="M177.316,325.687a.889.889,0,1,0,.836.947.9.9,0,0,0-.836-.947Z" transform="translate(-161.324 -297.894)" fill="#0033ad"/>
    <path id="Path_4849" data-name="Path 4849" d="M173.206,260.375a1.265,1.265,0,1,0,1.195,1.331,1.256,1.256,0,0,0-1.195-1.331Z" transform="translate(-157.206 -238.153)" fill="#0033ad"/>
    <path id="Path_4850" data-name="Path 4850" d="M241.893,275.143a1.078,1.078,0,1,0,1.459.478,1.078,1.078,0,0,0-1.459-.478Z" transform="translate(-220.714 -251.557)" fill="#0033ad"/>
  </g>
</svg>
