<svg id="icon-agix" xmlns="http://www.w3.org/2000/svg" width="32" height="32" viewBox="0 0 32 32">
  <rect id="Rectangle_2160" data-name="Rectangle 2160" width="32" height="32" fill="none"/>
  <g id="singularitynet-agix-logo">
    <circle id="Ellipse_106" data-name="Ellipse 106" cx="16" cy="16" r="16" fill="#6916ff"/>
    <g id="Group_4865" data-name="Group 4865" transform="translate(11.608 6.003)">
      <path id="Path_4815" data-name="Path 4815" d="M17.144,6.424a.28.28,0,0,1-.081-.363.289.289,0,0,1,.312,0A5.63,5.63,0,0,1,19.25,7.333,3.712,3.712,0,0,1,20,8.3a6.494,6.494,0,0,1,.5,1.152,4.5,4.5,0,0,1,.188,1.272c-.063.425-.125,2.485-1.313,3.455A.714.714,0,0,1,18.437,14a.627.627,0,0,1-.062-.727A5.047,5.047,0,0,0,18.5,8a10.986,10.986,0,0,0-1.356-1.576ZM15.3,25.006c.125.121.125.242.063.3s-.188.121-.25.06A5.63,5.63,0,0,1,13.238,24.1a3.709,3.709,0,0,1-.75-.97,6.463,6.463,0,0,1-.5-1.151A4.482,4.482,0,0,1,11.8,20.7c.063-.424.125-2.485,1.313-3.455a.714.714,0,0,1,.937.182.539.539,0,0,1,0,.728,5.047,5.047,0,0,0-.125,5.272A10.834,10.834,0,0,0,15.3,25.006Z" transform="translate(-11.608 -6.003)" fill="rgba(255,255,255,0.5)"/>
      <path id="Path_4816" data-name="Path 4816" d="M20.694,20.006a5.473,5.473,0,0,0-1.313-3.151,10.816,10.816,0,0,0-2.625-1.94,14.466,14.466,0,0,1-2.375-1.642,4.032,4.032,0,0,1-1.187-2.121,4.243,4.243,0,0,1,.306-2.48A6.692,6.692,0,0,1,15.256,6.43a.26.26,0,0,0,.063-.3.242.242,0,0,0-.375-.06,5.577,5.577,0,0,0-2.438,2.06,5.01,5.01,0,0,0-.881,3.273,5.25,5.25,0,0,0,.438,1.7,6,6,0,0,0,1,1.455A10.78,10.78,0,0,0,15.75,16.43a13.288,13.288,0,0,1,2.375,1.576,3.6,3.6,0,0,1,1.188,2.182A4.216,4.216,0,0,1,19,22.794a6.13,6.13,0,0,1-1.813,2.182.207.207,0,0,0-.063.3.24.24,0,0,0,.173.121.246.246,0,0,0,.2-.06,7.8,7.8,0,0,0,2.375-2.122,5.174,5.174,0,0,0,.819-3.212Z" transform="translate(-11.608 -6.003)" fill="#fff"/>
    </g>
  </g>
</svg>
