<svg id="Component_84_2" data-name="Component 84 – 2" xmlns="http://www.w3.org/2000/svg" width="20" height="20" viewBox="0 0 20 20">
  <rect id="Rectangle_2050" data-name="Rectangle 2050" width="20" height="20" fill="#fff" opacity="0"/>
  <g id="Logo_1_" transform="translate(1 1.503)">
    <path id="white_background" d="M15.362,4.734c.01.141.01.282.01.424a9.277,9.277,0,0,1-9.34,9.34v0A9.293,9.293,0,0,1,1,13.024a6.677,6.677,0,0,0,.781.047,6.592,6.592,0,0,0,4.077-1.408,3.287,3.287,0,0,1-3.067-2.28,3.272,3.272,0,0,0,1.482-.057A3.283,3.283,0,0,1,1.64,6.11V6.068a3.262,3.262,0,0,0,1.49.411A3.287,3.287,0,0,1,2.114,2.1,9.317,9.317,0,0,0,8.879,5.526a3.286,3.286,0,0,1,5.594-2.994,6.587,6.587,0,0,0,2.085-.8A3.3,3.3,0,0,1,15.115,3.55,6.528,6.528,0,0,0,17,3.034,6.669,6.669,0,0,1,15.362,4.734Z" transform="translate(0 0)" fill="#fff"/>
  </g>
</svg>
