<svg id="icon-avax" xmlns="http://www.w3.org/2000/svg" width="32" height="32" viewBox="0 0 32 32">
  <rect id="Rectangle_2167" data-name="Rectangle 2167" width="32" height="32" fill="none"/>
  <g id="Group_5097" data-name="Group 5097" transform="translate(-760.5 3324)">
    <rect id="Rectangle_2162" data-name="Rectangle 2162" width="19.771" height="17.981" transform="translate(766.604 -3318.524)" fill="#fff"/>
    <path id="Path_4872" data-name="Path 4872" d="M32.5,17a16,16,0,1,1-16-16A16,16,0,0,1,32.5,17ZM11.966,23.367H8.861a2.493,2.493,0,0,1-1.171-.126.789.789,0,0,1-.358-.617c-.012-.232.149-.515.472-1.081L15.471,8.029c.326-.574.491-.861.7-.967a.791.791,0,0,1,.715,0c.208.106.373.393.7.967l1.576,2.751.008.014a5.161,5.161,0,0,1,.609,1.256,2.334,2.334,0,0,1,0,1.093,5.18,5.18,0,0,1-.613,1.27l-4.027,7.119-.01.018a5.107,5.107,0,0,1-.784,1.173,2.344,2.344,0,0,1-.955.554A5.618,5.618,0,0,1,11.966,23.367Zm7.842,0h4.449a2.475,2.475,0,0,0,1.183-.13.787.787,0,0,0,.358-.621c.011-.224-.146-.5-.455-1.03l-.032-.055-2.229-3.813-.025-.043c-.313-.53-.471-.8-.674-.9a.783.783,0,0,0-.711,0c-.2.106-.369.385-.7.947l-2.221,3.813-.008.013c-.325.561-.488.842-.476,1.072a.8.8,0,0,0,.358.621A2.514,2.514,0,0,0,19.808,23.367Z" transform="translate(760 -3325)" fill="#e84142" fill-rule="evenodd"/>
  </g>
</svg>
