<svg id="Component_43_2" data-name="Component 43 – 2" xmlns="http://www.w3.org/2000/svg" width="20" height="20" viewBox="0 0 20 20">
  <rect id="Rectangle_2050" data-name="Rectangle 2050" width="20" height="20" fill="red" opacity="0"/>
  <path id="icons8-atom-editor" d="M7.587,4.012a.991.991,0,0,0-.614.189,1.9,1.9,0,0,0-.564.538,3.966,3.966,0,0,0-.575,2.318A11.717,11.717,0,0,0,5.944,8.6a10.548,10.548,0,0,0-1.409.426,5.377,5.377,0,0,0-1.687.978,2.287,2.287,0,0,0-.81,1.549,2.064,2.064,0,0,0,.436,1.371,4.273,4.273,0,0,0,1.03.867.764.764,0,0,0,.846-1.272,3.257,3.257,0,0,1-.685-.548.358.358,0,0,1-.1-.338h0a.764.764,0,0,1,.313-.5,4.026,4.026,0,0,1,1.212-.686A9.027,9.027,0,0,1,6.229,10.1q.192.788.471,1.587A11.263,11.263,0,0,0,5.072,16.98a2.626,2.626,0,0,0,.957,2.365,2.129,2.129,0,0,0,1.552.274A6.182,6.182,0,0,0,8.795,19.2a.763.763,0,1,0-.584-1.409,6.079,6.079,0,0,1-.922.334.459.459,0,0,1-.43-.057A1.957,1.957,0,0,1,6.6,16.956a8.657,8.657,0,0,1,.88-3.388,16.966,16.966,0,0,0,3.437,4.9,6.5,6.5,0,0,0,1.872,1.3,2.314,2.314,0,0,0,1.964.042l.042-.021.039-.027a2.25,2.25,0,0,0,.873-1.7,8.211,8.211,0,0,0-.069-2.1,21.736,21.736,0,0,0-1.08-4.213.762.762,0,1,0-1.43.524,20.871,20.871,0,0,1,1,3.9,7.1,7.1,0,0,1,.066,1.7.961.961,0,0,1-.2.566.776.776,0,0,1-.614-.08,5.212,5.212,0,0,1-1.422-1.007,15.746,15.746,0,0,1-3.149-4.528c-.159-.334-.3-.673-.435-1.014.183-.319.381-.643.6-.975.252-.387.512-.759.776-1.112q.525,0,1.077.028a16.228,16.228,0,0,1,5.385,1.139,5.236,5.236,0,0,1,1.474.9c.3.286.356.481.35.593-.013.264-.295.6-.977.8a.763.763,0,1,0,.429,1.465,2.592,2.592,0,0,0,2.073-2.18,2.338,2.338,0,0,0-.819-1.775,6.477,6.477,0,0,0-1.921-1.2,17.417,17.417,0,0,0-5.828-1.258,13.355,13.355,0,0,1,1.063-1.032A5.021,5.021,0,0,1,14.44,5.894a.491.491,0,0,1,.305.064.345.345,0,0,1,.186.316,1.423,1.423,0,0,1-.228.786.762.762,0,1,0,1.322.756,2.85,2.85,0,0,0,.423-1.692,1.97,1.97,0,0,0-.874-1.444,2.045,2.045,0,0,0-1.193-.31,5.723,5.723,0,0,0-3.324,1.681A16.713,16.713,0,0,0,8.993,8.214c-.533.019-1.05.06-1.543.121a9.848,9.848,0,0,1-.091-1.278,2.552,2.552,0,0,1,.3-1.441.2.2,0,0,1,.051-.054c.45.027.616.17,1.063.551a.763.763,0,1,0,.989-1.161A3.243,3.243,0,0,0,7.587,4.012Zm.225,5.821c-.016.025-.034.052-.052.077-.006-.022-.015-.048-.019-.071Zm2.978,1.036a1.144,1.144,0,1,0,1.144,1.144A1.144,1.144,0,0,0,10.79,10.869Z" transform="translate(-0.798 -2.012)" fill="#fff"/>
</svg>
