<?xml version="1.0" encoding="utf-8"?>
<!-- Generator: Adobe Illustrator 27.3.1, SVG Export Plug-In . SVG Version: 6.00 Build 0)  -->
<svg version="1.1" id="Group_5118" xmlns="http://www.w3.org/2000/svg" xmlns:xlink="http://www.w3.org/1999/xlink" x="0px" y="0px"
	 viewBox="0 0 39 10.3" style="enable-background:new 0 0 39 10.3;" xml:space="preserve">
<style type="text/css">
	.st0{fill:#54C06E;}
</style>
<g>
	<g id="Group_5118-2" transform="translate(0 0)">
		<path id="Path_4887" class="st0" d="M9,0H6.9C6.8,0,6.8,0,6.8,0.1c0,2.1,0.1,4,0.1,6.2c0,0.2,0,0.2-0.1,0L2.2,0C2.1,0,2.1,0,2,0
			L0.1,0C0.1,0,0,0,0,0.1c0,0,0,0,0,0V10c0,0.1,0,0.1,0.1,0.1c0.7,0.1,1.4,0.1,2.1,0c0.1,0,0.1,0,0.1-0.1c0-1.3,0-2.6,0-3.9
			c0-0.7,0-1.3-0.1-2c0-0.3,0-0.3,0.2-0.1l4.5,6c0.1,0.1,0.2,0.1,0.3,0.1H9c0.1,0,0.1,0,0.1-0.1v0V0.1C9.1,0,9,0,9,0C9,0,9,0,9,0"/>
		<path id="Path_4888" class="st0" d="M32.2,2.4l-1.3,0c-0.1,0-0.1,0-0.1-0.1l0-1.7c0-0.1,0-0.1-0.1-0.1l0,0h-2.1
			c-0.1,0-0.1,0-0.1,0.1c0,0,0,0,0,0l0,1.7c0,0.1,0,0.1-0.1,0.1l-1.1,0c-0.1,0-0.1,0.1-0.1,0.1l0,1.7c0,0,0,0.1,0.1,0.1l1.2,0.1
			c0,0,0.1,0,0.1,0.1l0,5.4c0,0.1,0.1,0.1,0.1,0.1c0,0,0,0,0,0h2c0.1,0,0.1,0,0.1-0.1c0,0,0,0,0,0l0-5.5c0-0.1,0-0.1,0.1-0.1l0,0
			h1.2c0.1,0,0.1-0.1,0.1-0.1L32.2,2.4C32.3,2.5,32.3,2.4,32.2,2.4L32.2,2.4"/>
		<path id="Path_4889" class="st0" d="M17.5,3c-1.8-1.3-4.3-0.9-5.8,0.8c-0.6,0.7-0.9,1.6-0.8,2.5c0,1,0.4,1.9,1.1,2.6
			c1.5,1.7,4,1.9,5.7,0.4c0.7-0.6,1.2-1.5,1.3-2.4c0.1-0.7,0-1.4-0.2-2C18.6,4.1,18.1,3.5,17.5,3 M15,8.3c-1.1-0.1-1.9-1-1.8-2
			c-0.1-1,0.6-1.9,1.6-2c1-0.1,1.9,0.6,2,1.6c0,0.1,0,0.2,0,0.4C16.9,7.3,16.1,8.2,15,8.3"/>
		<path id="Path_4890" class="st0" d="M25.3,6c-0.8-0.3-1.6-0.6-2.3-0.8c-0.2-0.1-0.4-0.2-0.5-0.4c-0.2-0.4-0.1-0.6,0.2-0.8
			c0.2-0.1,0.5-0.1,0.7-0.1c0.6,0.1,1.3,0.3,1.7,0.7c0,0,0.1,0,0.1,0l1.1-1.1l0,0c0,0,0-0.1,0-0.1c0,0,0,0,0,0
			c-1-0.8-2.3-1.2-3.6-1.1c-0.6,0.1-1.1,0.3-1.6,0.6c-0.6,0.4-1,1.1-0.9,1.8c0,0.5,0.2,0.9,0.5,1.3c0.3,0.4,0.7,0.7,1.2,0.8
			c0.6,0.2,1.2,0.4,1.8,0.6c0.2,0.1,0.3,0.2,0.4,0.3c0.2,0.2,0.1,0.4,0,0.6c0,0,0,0,0,0c-0.2,0.2-0.4,0.2-0.6,0.2
			c-0.8,0.1-1.5-0.2-2.1-0.7c-0.1-0.1-0.2-0.1-0.2,0l-1.2,1l0,0c0,0,0,0.1,0,0.1c0.6,0.6,1.3,1,2.1,1.1c0.6,0.1,1.2,0.2,1.8,0.1
			c0.6-0.1,1.2-0.3,1.7-0.7c0.5-0.4,0.8-1,0.9-1.6c0-0.4-0.1-0.8-0.2-1.1C26,6.4,25.7,6.1,25.3,6"/>
		<path id="Path_4891" class="st0" d="M39,2.4c-1.1-0.3-2.2,0.1-2.9,1c-0.1,0.2-0.2,0.2-0.2-0.1l-0.1-0.8c0-0.1,0-0.1-0.1-0.1
			c0,0,0,0,0,0h-1.9c-0.1,0-0.1,0.1-0.1,0.1c0,0,0,0,0,0l0,7.4c0,0.1,0,0.1,0.1,0.1l2,0h0c0.1,0,0.1-0.1,0.1-0.1c0-1.2,0-2.3,0-3.4
			c0-0.4,0.1-0.9,0.3-1.2c0.4-0.6,1.1-0.8,2.1-0.5h0c0.1,0,0.1,0,0.1-0.1L39,2.4L39,2.4C39.1,2.4,39,2.4,39,2.4"/>
	</g>
</g>
</svg>
