<svg xmlns="http://www.w3.org/2000/svg" viewBox="0 0 164.51 35.82"><defs><style>.cls-1{fill:#fff;}</style></defs><g id="Layer_2" data-name="Layer 2"><g id="Layer_1-2" data-name="Layer 1"><polygon class="cls-1" points="0 8.63 0 11.73 0 19.32 3.11 19.32 3.11 11.73 12.64 11.73 12.64 8.63 3.11 8.63 0 8.63"/><rect class="cls-1" x="19.36" y="0.54" width="3.11" height="18.77"/><polygon class="cls-1" points="23.55 31.63 28.06 31.63 28.06 30.64 23.55 30.64 22.57 30.64 22.57 31.63 22.57 34.55 22.57 35.52 23.55 35.52 28.67 35.52 28.67 34.55 23.55 34.55 23.55 31.63"/><polygon class="cls-1" points="43.01 33.91 37.76 27.02 37.76 27 37.75 27 36.78 27 36.78 35.52 37.76 35.52 37.76 28.63 43.01 35.52 43.99 35.52 43.99 27 43.01 27 43.01 33.91"/><rect class="cls-1" x="68.05" y="27.01" width="0.98" height="8.52"/><polygon class="cls-1" points="83.75 33.91 78.5 27.02 78.5 27 78.49 27 77.52 27 77.52 35.52 78.5 35.52 78.5 28.63 83.75 35.52 84.73 35.52 84.73 27 83.75 27 83.75 33.91"/><rect class="cls-1" x="22.57" y="27.01" width="6.1" height="0.98"/><polygon class="cls-1" points="94.08 31.63 98.59 31.63 98.59 30.64 94.08 30.64 93.11 30.64 93.11 31.63 93.11 34.55 93.11 35.52 94.08 35.52 99.2 35.52 99.2 34.55 94.08 34.55 94.08 31.63"/><rect class="cls-1" x="93.11" y="27.01" width="6.1" height="0.98"/><polygon class="cls-1" points="108.38 31.63 112.89 31.63 112.89 30.64 108.38 30.64 107.4 30.64 107.4 31.63 107.4 34.55 107.4 35.52 108.38 35.52 113.5 35.52 113.5 34.55 108.38 34.55 108.38 31.63"/><rect class="cls-1" x="107.4" y="27.01" width="6.1" height="0.98"/><rect class="cls-1" x="119.11" y="0.54" width="3.11" height="18.77"/><polygon class="cls-1" points="154.98 16.27 154.98 0.55 151.87 0.55 151.87 16.27 151.87 19.32 151.87 19.36 164.51 19.36 164.51 16.27 154.98 16.27"/><polygon class="cls-1" points="58.68 0.55 63.37 11.71 57.1 11.71 53.99 11.71 52.69 14.82 50.8 19.32 53.91 19.32 55.79 14.82 64.67 14.82 66.55 19.32 69.66 19.32 61.79 0.55 58.68 0.55"/><polygon class="cls-1" points="135.62 0.55 140.3 11.71 134.03 11.71 130.93 11.71 129.62 14.82 127.74 19.32 130.85 19.32 132.73 14.82 141.61 14.82 143.49 19.32 146.6 19.32 138.72 0.55 135.62 0.55"/><polygon class="cls-1" points="43.98 0.55 42.93 1.29 41.88 2.04 42.42 2.04 42.42 13.69 32.51 0.56 32.51 0.55 29.4 0.55 29.4 19.32 32.51 19.32 32.51 5.82 42.42 19.32 45.53 19.32 45.53 2.04 46.08 2.04 45.03 1.29 43.98 0.55"/><polygon class="cls-1" points="89.51 0.55 88.46 1.29 87.41 2.04 87.96 2.04 87.96 13.69 78.04 0.56 78.04 0.55 74.94 0.55 74.94 19.32 78.04 19.32 78.04 5.82 87.96 19.32 91.06 19.32 91.06 2.04 91.61 2.04 90.56 1.29 89.51 0.55"/><path class="cls-1" d="M110.86,14.43a6.38,6.38,0,1,1-.19-9.2l2-2.2A9.38,9.38,0,1,0,113,16.54Z"/><path class="cls-1" d="M58.64,33.83a3.48,3.48,0,1,1,.06-5.17l.72-.77a4.54,4.54,0,1,0,.13,6.53l.15-.15V31H58.64Z"/><path class="cls-1" d="M127.22,31.78a2.76,2.76,0,0,0,.8-2.13,2.7,2.7,0,0,0-.8-2.11,2.53,2.53,0,0,0-1.77-.58h-3.81V28h3.86a1.56,1.56,0,0,1,1,.32,1.68,1.68,0,0,1,.44,1.31,1.81,1.81,0,0,1-.45,1.35,1.45,1.45,0,0,1-1.06.35h-3.77v4.18h1.06V32.41h2.43l2.35,3.41.88-.6-2-2.94A2.19,2.19,0,0,0,127.22,31.78Z"/><path class="cls-1" d="M140.78,31.12c-.41-.13-.82-.24-1.24-.33-1.75-.37-2.49-.68-2.23-2a.87.87,0,0,1,.46-.67c.84-.44,2.54.12,3.12.37l.43-1c-.26-.11-2.61-1.09-4-.34a2,2,0,0,0-1,1.42c-.48,2.51,1.65,3,3.06,3.26a8.3,8.3,0,0,1,1.09.28,1.14,1.14,0,0,1,.84.85,1.28,1.28,0,0,1-.56,1.16,3.46,3.46,0,0,1-2.56.31,1.77,1.77,0,0,1-1.15-.57l-.94.49A2.69,2.69,0,0,0,138,35.47a4.61,4.61,0,0,0,1.17.12,3.69,3.69,0,0,0,2.28-.63,2.38,2.38,0,0,0,.94-2.19A2.22,2.22,0,0,0,140.78,31.12Z"/><polygon class="cls-1" points="13.53 0.55 0 0.55 0 3.65 13.53 3.65 13.53 4.2 15.03 2.1 13.53 0 13.53 0.55"/></g></g></svg>